<svg xmlns="http://www.w3.org/2000/svg" width="18.559" height="13.076" viewBox="0 0 18.559 13.076">
  <path id="icon-social-media-youtube" d="M18.171,2.042A2.332,2.332,0,0,0,16.53.39,55.117,55.117,0,0,0,9.279,0,55.111,55.111,0,0,0,2.028.39,2.332,2.332,0,0,0,.388,2.042,24.471,24.471,0,0,0,0,6.538a24.474,24.474,0,0,0,.388,4.5,2.332,2.332,0,0,0,1.641,1.651,55.112,55.112,0,0,0,7.251.39,55.117,55.117,0,0,0,7.251-.39,2.333,2.333,0,0,0,1.641-1.651,24.481,24.481,0,0,0,.388-4.5,24.478,24.478,0,0,0-.388-4.5M7.381,9.3V3.778l4.851,2.76Z" fill="#fff"/>
</svg>
