<svg id="icon-social-media-www-website" xmlns="http://www.w3.org/2000/svg" xmlns:xlink="http://www.w3.org/1999/xlink" width="17" height="17" viewBox="0 0 17 17">
  <defs>
    <clipPath id="clip-path">
      <rect id="Rectangle_6504" data-name="Rectangle 6504" width="17" height="17" fill="#fff"/>
    </clipPath>
  </defs>
  <g id="Group_11119" data-name="Group 11119" clip-path="url(#clip-path)">
    <path id="Path_10978" data-name="Path 10978" d="M8.5,0A8.5,8.5,0,0,0,2.49,14.51,8.5,8.5,0,1,0,14.51,2.49,8.444,8.444,0,0,0,8.5,0m0,1.234c.792,0,1.6.717,2.226,1.968a9.442,9.442,0,0,1,.683,1.889H5.591A9.442,9.442,0,0,1,6.274,3.2C6.9,1.951,7.708,1.234,8.5,1.234M11.654,6.32a14.851,14.851,0,0,1,.157,2.18,14.851,14.851,0,0,1-.157,2.18H5.346a15.174,15.174,0,0,1,0-4.36ZM5.663,1.807a7.443,7.443,0,0,0-.49.846A10.929,10.929,0,0,0,4.327,5.09H2.081A7.316,7.316,0,0,1,5.663,1.807M1.23,8.5a7.245,7.245,0,0,1,.334-2.18H4.1a16.356,16.356,0,0,0,0,4.36H1.564A7.243,7.243,0,0,1,1.23,8.5m.851,3.41H4.327a10.929,10.929,0,0,0,.846,2.437,7.443,7.443,0,0,0,.49.846A7.315,7.315,0,0,1,2.081,11.91M8.5,15.766c-.792,0-1.6-.717-2.226-1.968a9.441,9.441,0,0,1-.683-1.889h5.818a9.441,9.441,0,0,1-.683,1.889c-.623,1.25-1.434,1.968-2.226,1.968m2.837-.573a7.445,7.445,0,0,0,.49-.846,10.933,10.933,0,0,0,.846-2.437h2.246a7.315,7.315,0,0,1-3.582,3.283M15.77,8.5a7.243,7.243,0,0,1-.334,2.18H12.9a16.12,16.12,0,0,0,.146-2.18A16.12,16.12,0,0,0,12.9,6.32h2.54A7.245,7.245,0,0,1,15.77,8.5m-3.1-3.41a10.931,10.931,0,0,0-.846-2.437,7.446,7.446,0,0,0-.49-.846A7.316,7.316,0,0,1,14.919,5.09Z" fill="#fff"/>
  </g>
</svg>
